<?xml version="1.0" standalone="no"?>
<!DOCTYPE svg PUBLIC "-//W3C//DTD SVG 20010904//EN"
 "http://www.w3.org/TR/2001/REC-SVG-20010904/DTD/svg10.dtd">
<svg version="1.0" xmlns="http://www.w3.org/2000/svg"
 width="225.000000pt" height="225.000000pt" viewBox="0 0 225.000000 225.000000"
 preserveAspectRatio="xMidYMid meet">

<g transform="translate(0.000000,225.000000) scale(0.100000,-0.100000)"
fill="#000000" stroke="none">
<path d="M0 1125 l0 -1125 1125 0 1125 0 0 1125 0 1125 -1125 0 -1125 0 0
-1125z m763 127 c53 -86 116 -187 140 -224 l42 -67 -3 224 -3 225 50 0 51 0 0
-295 0 -295 -54 0 -54 0 -139 219 -138 219 -3 -219 -2 -219 -50 0 -50 0 0 295
0 295 58 0 57 0 98 -158z m707 113 l0 -45 -105 0 -105 0 0 -80 0 -79 98 -3 97
-3 0 -40 0 -40 -97 -3 -98 -3 0 -79 0 -80 110 0 110 0 0 -45 0 -45 -160 0
-160 0 0 295 0 295 155 0 155 0 0 -45z m470 0 l0 -45 -80 0 -80 0 0 -250 0
-250 -50 0 -50 0 0 250 0 250 -85 0 -85 0 0 45 0 45 215 0 215 0 0 -45z
m-1496 -461 c41 -40 -6 -108 -62 -88 -37 13 -52 57 -27 84 22 24 67 26 89 4z"/>
</g>
</svg>
