<svg xmlns="http://www.w3.org/2000/svg" fill="#4EAA25" width="50" height="50"  xmlns:v="https://vecta.io/nano"><path d="M43.582 2L29.535 17.2l-7.3-6.8-3.227 3.4L29.725 24 47 5.2 43.582 2zM9 4a5.02 5.02 0 0 0-5 5v32a5.02 5.02 0 0 0 5 5h32a5.02 5.02 0 0 0 5-5V9.25l-2 2.17V41c0 1.668-1.332 3-3 3H9c-1.668 0-3-1.332-3-3V9c0-1.668 1.332-3 3-3h28.16L39 4h-8.13a1 1 0 0 0-.006 0H9zm5.637 18c-3.727 0-6.184 2-6.184 5.025 0 2.467 1.455 4.02 4.455 4.75l2.184.55c2.273.548 3.182 1.28 3.182 2.65 0 1.553-1.546 2.648-3.637 2.648-2.273 0-3.817-.98-4.1-2.623H8c.182 3.015 2.727 5 6.455 5 4 0 6.545-2 6.545-5.3 0-2.558-1.454-4.02-4.908-4.844l-1.9-.457c-2.182-.548-3.1-1.188-3.1-2.467 0-1.553 1.364-2.557 3.455-2.557 2 0 3.363 1.004 3.635 2.557h2.545C20.636 24 18.092 22 14.637 22zM30.1 27c-3.75 0-6.1 2.56-6.1 6.54S26.34 40 30.1 40c3 0 5.16-1.33 5.72-3.62H33.3c-.47.973-1.6 1.498-3.1 1.498-2.07 0-3.47-1.628-3.57-3.752v-.18H36v-.664c0-3.9-2.25-6.28-5.9-6.28zm0 2.05c1.86 0 3.05 1.1 3.25 2.95h-6.6c.22-1.77 1.5-2.95 3.34-2.95z"/></svg>